<svg width="194" height="160" viewBox="0 0 194 160" fill="none" version="1.1" id="svg84" xmlns="http://www.w3.org/2000/svg"><path d="m24.9 67.1 68.04-42.93 68.03 42.93v62.65H24.9V67.1Z" fill="#E6E7E8" id="path1"/><path fill-rule="evenodd" clip-rule="evenodd" d="M24.6 129.75c0 .17.13.31.3.31h136.07c.17.02.32-.11.34-.28V67.13a.3.3 0 0 0-.16-.26L93.1 23.93a.32.32 0 0 0-.33 0l-68.03 42.9a.3.3 0 0 0-.15.27v62.65Zm136.08-.32H25.21V67.28l67.73-42.72 67.74 42.72v62.15Z" fill="#231F20" id="path2"/><path d="M109.5 50.24c2.27-3.73 2.84-8.27 2.64-12.63a30.74 30.74 0 0 0-3.68-13.63 12.3 12.3 0 0 0-3.93-4.5c-2.04-1.26-3.43-.41-5.43-.75-1.69-.3-3.45-1.5-5.32-1.8a17.3 17.3 0 0 0-12.42 2.6C74.96 23.84 72 32.1 65.4 36.12c-6.49 3.91-14.78 2.74-22.06 4.9a24.58 24.58 0 0 0-8.41 4.44c-1.72 1.32-3.13 3-4.13 4.92-1.7 3.56-1.26 7.8 0 11.56 1.26 3.87 3.4 7.56 6.7 9.96 2.76 2 6.16 2.91 9.52 3.51 4.57.83 9.3 1.14 13.86.15 3.37-.68 6.5-2.2 9.12-4.43 1.12-1 1.74-2.37 2.78-3.36 1.45-1.37 3.7-2.2 5.38-3.25 2.64-1.64 5.3-3.4 8.3-4.18 7.65-1.98 18.45-2.53 23.06-10.11Z" fill="#fff" id="path3"/><path fill-rule="evenodd" clip-rule="evenodd" d="M46.94 75.73c2.58.5 5.2.75 7.84.77 2.06.02 4.12-.18 6.15-.6a20.4 20.4 0 0 0 9.29-4.54 11.4 11.4 0 0 0 1.52-1.81c.37-.56.8-1.08 1.26-1.56 1.03-.87 2.18-1.6 3.4-2.16.67-.34 1.3-.68 1.93-1.06l.63-.4.05-.04c2.37-1.47 4.82-3 7.51-3.69 1.45-.37 3-.69 4.62-1.02l.25-.05c6.85-1.4 14.58-2.98 18.36-9.16 2.05-3.34 2.92-7.62 2.68-12.78a30.82 30.82 0 0 0-3.71-13.76 12.4 12.4 0 0 0-4.04-4.6 5.4 5.4 0 0 0-3.6-.75c-.64.05-1.3.04-1.93-.05-.84-.19-1.67-.47-2.45-.84-.92-.44-1.9-.78-2.9-1-4.39-.73-8.89.22-12.6 2.67-3.13 2.13-5.47 5.2-7.73 8.18l-.03.03c-2.38 3.14-4.84 6.37-8.2 8.4-3.87 2.34-8.31 2.83-13.02 3.35a51.5 51.5 0 0 0-8.96 1.53c-3.1.93-6 2.46-8.51 4.5a14.73 14.73 0 0 0-4.2 5.03c-1.94 4-1.08 8.63-.05 11.78 1.45 4.4 3.8 7.91 6.8 10.07s6.73 3.04 9.64 3.56Zm34.59-55.92a16.77 16.77 0 0 1 12.24-2.54c.95.2 1.87.5 2.75.92.82.4 1.68.68 2.57.88.68.1 1.37.11 2.06.06a4.7 4.7 0 0 1 3.27.63 11.91 11.91 0 0 1 3.83 4.4 30.18 30.18 0 0 1 3.64 13.5c.23 5.05-.64 9.24-2.59 12.47-3.63 5.96-11.25 7.52-17.99 8.88-1.74.36-3.36.69-4.9 1.09-2.78.7-5.27 2.25-7.67 3.75l-.04.02-.67.42c-.58.36-1.21.69-1.89 1.03a15.37 15.37 0 0 0-3.54 2.25c-.5.5-.95 1.05-1.34 1.64-.41.63-.9 1.2-1.44 1.72a19.8 19.8 0 0 1-9.03 4.4c-3.93.86-8.42.81-13.73-.14-2.84-.51-6.51-1.39-9.4-3.47-2.9-2.09-5.17-5.47-6.58-9.81-1.02-3.05-1.83-7.52 0-11.33a14.24 14.24 0 0 1 4.04-4.82c2.46-2 5.29-3.49 8.32-4.4 2.9-.77 5.87-1.27 8.86-1.51h.04c4.53-.51 9.23-1.03 13.2-3.43 3.46-2.08 5.96-5.37 8.37-8.55l.02-.02.03-.04c2.23-2.93 4.52-5.95 7.57-8Z" fill="#231F20" id="path4"/><path d="m135.22 44.07-3.32 12.46 7.99 1.43 4.55-16.65s-7.1-5.43-8.2-5.47c-1.1-.03-1.02 8.23-1.02 8.23Z" fill="#fff" id="path5"/><path fill-rule="evenodd" clip-rule="evenodd" d="M139.83 58.27h.06a.3.3 0 0 0 .29-.21l4.55-16.65a.32.32 0 0 0-.11-.34c-1.2-.9-7.24-5.48-8.37-5.52-.16 0-.3.05-.41.17-.94.9-.94 7.02-.94 8.35l-3.29 12.4a.3.3 0 0 0 .25.4l7.97 1.4Zm-.16-.67-7.34-1.3 3.22-12.13v-.08c-.02-3.53.25-7.6.7-7.93.6.02 4.43 2.67 7.83 5.27l-4.4 16.17Z" fill="#231F20" id="path6"/><path d="M126.6 35.92s1.12 2.52 2.75 2.93c1.62.4 5.16-1.34 5.57-1.11.4.23 9.73 7.2 10.64 7.4.9.22 2.58-1.98 3.29-4.6 0 0-9.08-6.18-9.67-6.83-.59-.65-1.3-4.57-2.18-6l-10.4 8.2Z" fill="#fff" id="path7"/><path fill-rule="evenodd" clip-rule="evenodd" d="M145.46 45.48h.2c1.22 0 2.83-2.5 3.48-4.8a.3.3 0 0 0-.13-.34c-3.63-2.48-9.2-6.33-9.6-6.79a10.7 10.7 0 0 1-.88-2.45c-.29-1.2-.71-2.38-1.26-3.5a.34.34 0 0 0-.21-.15.33.33 0 0 0-.25.07l-10.4 8.18a.3.3 0 0 0-.08.37c.09.19 1.24 2.65 2.96 3.11 1.09.29 2.88-.3 4.2-.74h.01l.47-.18c.37-.14.71-.28.8-.23l2.2 1.6c4.95 3.6 7.92 5.71 8.49 5.85Zm-10.4-8.02a.52.52 0 0 0-.25-.05c-.53.06-1.04.19-1.53.39h-.02c-1.16.38-2.92.96-3.84.73-1.18-.3-2.13-1.93-2.44-2.52l9.9-7.83c.42 1 .76 2 1.03 3.04.42 1.44.7 2.35 1.01 2.7.57.63 8 5.72 9.54 6.76-.77 2.59-2.27 4.32-2.86 4.17-.5-.14-4.35-2.93-7.03-4.87l-1.23-.89-.48-.35a42.46 42.46 0 0 0-1.8-1.28Z" fill="#231F20" id="path8"/><path d="M136.51 30.05c-.07.67.05 1.34.36 1.94.51.9 2.77 2.12 2.77 2.12l1.58-3.14-3.09-2.23-1.62 1.31Z" fill="#231F20" id="path9"/><path fill-rule="evenodd" clip-rule="evenodd" d="M139.5 34.4c.04.02.1.03.14.03.04 0 .07-.01.1-.03a.31.31 0 0 0 .19-.15l1.57-3.15a.32.32 0 0 0-.1-.4l-3.08-2.22a.32.32 0 0 0-.4 0l-1.61 1.33a.3.3 0 0 0-.1.2 3.7 3.7 0 0 0 .39 2.13c.53.96 2.65 2.12 2.9 2.25Zm-2.35-2.57a3.04 3.04 0 0 1-.34-1.6l1.33-1.1 2.67 1.92-1.3 2.64c-.73-.43-2.04-1.23-2.36-1.86Z" fill="#231F20" id="path10"/><path d="M146.39 38.88s.83-2.6-.63-2.78a1.33 1.33 0 0 0-2.02-1.07s-.46-1.94-1.99-1.55c-1.52.4-2.73 4.04-2.52 4.96.22.92 1.4.36 2-.5 0 0-.77 1.43-.26 1.8.76.56 1.55-.42 2.2-1.14 0 0-.96 1.68.44 1.83 1.08.12 2.08-2.05 2.08-2.05l.7.5Z" fill="#fff" id="path11"/><path fill-rule="evenodd" clip-rule="evenodd" d="M143.55 40.75h.12c.96 0 1.77-1.27 2.07-1.91l.43.3a.3.3 0 0 0 .28.03.3.3 0 0 0 .2-.2c.07-.18.56-1.77 0-2.65a1.17 1.17 0 0 0-.66-.5c-.12-.46-.4-.87-.8-1.13a1.6 1.6 0 0 0-1.27-.08 2.58 2.58 0 0 0-.97-1.26 1.6 1.6 0 0 0-1.3-.16c-1.74.44-3 4.26-2.76 5.32.05.35.32.63.66.7.32.05.64-.02.92-.2-.1.36 0 .75.28 1 .63.45 1.23.16 1.75-.3 0 .58.47 1.04 1.05 1.04Zm-.23-2.4a.32.32 0 0 0-.42.04l-.13.15c-.68.75-1.2 1.27-1.65.95-.14-.1.03-.79.35-1.42a.32.32 0 0 0-.1-.41.31.31 0 0 0-.43.09c-.27.45-.73.76-1.26.83-.05 0-.13-.02-.17-.22-.17-.8.96-4.23 2.3-4.57a1 1 0 0 1 .81.08c.4.31.68.74.8 1.23.02.09.08.16.17.2a.3.3 0 0 0 .26 0c.32-.18.7-.2 1.04-.07.3.21.49.54.54.9.02.14.13.25.27.27.18.01.34.1.44.25.2.55.23 1.15.06 1.7l-.36-.24a.3.3 0 0 0-.26-.04.32.32 0 0 0-.2.17c-.3.63-1.13 1.95-1.76 1.88-.35-.03-.44-.17-.44-.22-.15-.3.1-.9.23-1.14a.32.32 0 0 0-.09-.41Z" fill="#231F20" id="path12"/><path d="M139.65 31.08s-.86-1.5-1.77-.18c-.9 1.31-2 3.77-.48 4.04 1.51.26 2.64-2.56 2.25-3.86Z" fill="#fff" id="path13"/><path fill-rule="evenodd" clip-rule="evenodd" d="M137.35 35.26h.24a1.89 1.89 0 0 0 1.39-.7 4.4 4.4 0 0 0 .98-3.56l-.03-.07c-.07-.1-.53-.85-1.2-.88a1.3 1.3 0 0 0-1.1.68c-.65.93-1.63 2.8-1.19 3.85.16.37.5.63.9.68Zm.8-4.2c.12-.18.32-.4.53-.4h.01c.28.01.57.37.67.53a3.81 3.81 0 0 1-.85 2.93c-.25.34-.65.52-1.06.5a.51.51 0 0 1-.43-.3c-.26-.64.36-2.16 1.12-3.26Z" fill="#231F20" id="path14"/><path d="M135.21 44.91s-1-4.75-1.09-5.6c-.16-1.44.19-3.7 1.45-4.04 1.27-.36 4.17-.7 3.69.58-.44 1.16-2.98 1.38-2.98 1.38s1.75 1.76 1.49 3.52" fill="#fff" id="path15"/><path d="M135.21 45.23a.32.32 0 0 1-.3-.25c-.04-.2-1-4.78-1.1-5.66-.16-1.47.16-3.96 1.68-4.4.8-.23 3.22-.68 3.93.1a.8.8 0 0 1 .13.89c-.36.97-1.8 1.35-2.64 1.5.53.67 1.38 1.98 1.17 3.33a.32.32 0 1 1-.63-.1c.24-1.57-1.38-3.23-1.4-3.24a.33.33 0 0 1-.07-.33c.05-.12.15-.2.27-.2.63-.06 2.4-.38 2.7-1.18.07-.17 0-.22 0-.25-.33-.37-2.07-.26-3.3.08-1.02.28-1.36 2.33-1.21 3.7.1.83 1.07 5.54 1.08 5.58a.3.3 0 0 1-.25.37l-.06.06Z" fill="#231F20" id="path16"/><path d="M153.82 26.9s-10.5-1.05-14.78 1.43a29.94 29.94 0 0 0-3.1 2.14c-2.32 1.82-4.5 3.89-6.2 5.04-3.38 2.27-6.65 2.73-8.87-.88-1.89-3.08-.79-4.54 1.77-7.28 1.26-1.35 3.93-3.59 6.23-6.06a19.5 19.5 0 0 0 3.4-4.66c1.95-4.08 1.4-10.33 1.4-10.33l20.15 20.6Z" fill="#fff" id="path17"/><path fill-rule="evenodd" clip-rule="evenodd" d="M124 37.47c.34.08.68.12 1.02.11 1.44 0 3.08-.6 4.9-1.81 1.2-.86 2.36-1.78 3.47-2.76.88-.75 1.82-1.53 2.77-2.28.96-.77 1.98-1.48 3.05-2.11 3.92-2.28 13.4-1.5 14.49-1.42h.1a.3.3 0 0 0 .32-.17.32.32 0 0 0-.06-.36L133.9 6.07a.3.3 0 0 0-.36-.07.32.32 0 0 0-.19.31c0 .06.53 6.23-1.36 10.2-.88 1.68-2 3.22-3.34 4.57a91.84 91.84 0 0 1-4.01 3.92c-.9.84-1.69 1.57-2.23 2.15-2.59 2.77-3.84 4.36-1.8 7.66a5.38 5.38 0 0 0 3.4 2.66Zm8.57-20.7c1.53-3.26 1.54-7.78 1.46-9.67l19 19.43c-2.61-.19-10.48-.56-14.13 1.57-1.1.65-2.15 1.37-3.15 2.17-.82.64-1.62 1.32-2.4 1.97l-.38.32a40.57 40.57 0 0 1-3.41 2.7c-2.1 1.4-3.92 1.96-5.42 1.63a4.81 4.81 0 0 1-3-2.4c-1.8-2.93-.8-4.24 1.73-6.92.51-.54 1.27-1.25 2.14-2.06l.06-.05.02-.02a77.45 77.45 0 0 0 4.02-3.93c1.38-1.4 2.54-3 3.46-4.73Z" fill="#231F20" id="path18"/><path d="M136.51 30.05c-2.32 1.82-5.13 4.23-6.77 5.45-3.75 2.8-6.12 3.1-8.56-.36-2.52-3.55-1.1-5.04 1.46-7.78 1.26-1.35 3.93-3.59 6.23-6.06 0 0 .15 2.57 2.71 5.71 1.26 1.54 3 2.6 4.93 3.04Z" fill="#231F20" id="path19"/><path fill-rule="evenodd" clip-rule="evenodd" d="M124.41 37.93c.2.03.39.05.58.05 1.35 0 2.93-.7 4.94-2.22.82-.62 1.94-1.54 3.14-2.52l.26-.22.41-.33c1-.82 2.02-1.65 2.97-2.39.09-.08.13-.2.1-.32a.33.33 0 0 0-.24-.24 8.7 8.7 0 0 1-4.74-2.93c-2.46-3.01-2.64-5.53-2.64-5.53a.31.31 0 0 0-.54-.2 91.84 91.84 0 0 1-4.23 4.12c-.81.75-1.52 1.4-2.04 1.98h-.01c-2.56 2.74-4.1 4.4-1.45 8.14 1.12 1.59 2.23 2.42 3.5 2.61Zm.66-12.47a82.39 82.39 0 0 0 3.59-3.48 12.59 12.59 0 0 0 2.68 5.23 9.36 9.36 0 0 0 4.47 3c-.93.74-1.91 1.54-2.87 2.33-.24.2-.48.4-.72.58a53.14 53.14 0 0 1-2.67 2.13c-2.19 1.63-3.74 2.26-5.04 2.06-1.08-.17-2.06-.92-3.07-2.35-2.35-3.32-1.1-4.67 1.4-7.37l.03-.02c.51-.55 1.27-1.25 2.14-2.06l.06-.05Z" fill="#231F20" id="path20"/><path d="M156.73 26c-2.35 2.11-7.56.36-12.63-3.93a36.37 36.37 0 0 1-6.73-7.5c-3.78-5.55-4.96-10.92-2.6-13.04C137.7-1.1 145 2.25 151.08 9c6.06 6.76 8.6 14.36 5.66 17Z" fill="#7C5DFA" id="path21"/><path fill-rule="evenodd" clip-rule="evenodd" d="M134.34 1.07A4.47 4.47 0 0 1 137.42 0c3.88 0 9.4 3.37 14.1 8.55a30.84 30.84 0 0 1 6.34 10.27c1.18 3.46.91 6.17-.7 7.62a4.46 4.46 0 0 1-3.11 1.08c-2.82 0-6.6-1.83-10.38-4.97a38.27 38.27 0 0 1-6.84-7.65c-4.06-5.98-5.06-11.55-2.5-13.84Zm16.7 7.95C146.39 3.82 141 .64 137.43.64c-.96-.04-1.9.27-2.64.89-2.37 2.12-1.2 7.5 2.59 13.04a36.5 36.5 0 0 0 6.71 7.5c3.64 3.07 7.31 4.84 9.98 4.84a3.9 3.9 0 0 0 2.66-.9c2.95-2.63.4-10.23-5.67-17Z" fill="#231F20" id="path22"/><path d="m148.29 16.83-4.2 5.24a36.38 36.38 0 0 1-6.72-7.5l6.06-3.72 4.86 5.98Z" fill="#fff" id="path23"/><ellipse cx="145.85" cy="13.87" rx="1.8" ry="3.85" transform="rotate(-39.4 145.85 13.87)" fill="#231F20" id="ellipse23"/><path fill-rule="evenodd" clip-rule="evenodd" d="M144.2 15.2c1.12 1.35 2.46 2.15 3.44 2.15.3 0 .6-.09.83-.27.91-.76.47-2.76-1.02-4.56a6.93 6.93 0 0 0-2.22-1.89c-.85-.37-1.57-.38-2.04 0-.47.39-.6 1.1-.37 2 .28.94.75 1.82 1.38 2.56Zm-.61-4.08a.7.7 0 0 1 .46-.14c.3.02.6.1.88.25.8.4 1.49.98 2.05 1.68 1.32 1.61 1.64 3.23 1.1 3.68-.54.45-2.07-.18-3.4-1.8a6.3 6.3 0 0 1-1.25-2.31c-.17-.64-.1-1.14.16-1.36Z" fill="#231F20" id="path24"/><path d="M143.13 38.92a.3.3 0 0 1-.16-.05.31.31 0 0 1-.11-.43c.4-.64.88-1.22 1.44-1.71a.31.31 0 0 1 .54.17.31.31 0 0 1-.14.3c-.49.46-.91.99-1.26 1.56a.32.32 0 0 1-.3.16Z" fill="#231F20" id="path25"/><path d="M141.2 38.25h-.05a.31.31 0 0 1-.25-.37 4 4 0 0 1 1.5-2.24.32.32 0 0 1 .39.5 3.42 3.42 0 0 0-1.26 1.86.32.32 0 0 1-.33.25Z" fill="#231F20" id="path26"/><path d="M145.66 38.7a.32.32 0 0 1-.3-.26.32.32 0 0 1 .05-.24l.43-.63c.1-.14.3-.17.44-.08.14.1.17.3.07.44l-.43.63a.3.3 0 0 1-.26.14Z" fill="#231F20" id="path27"/><path d="M125.77 37.34a.3.3 0 0 1-.19-.06c-2.78-2.12-4.5-4.68-4.85-7.23v-.07a.31.31 0 0 1 .14-.35.3.3 0 0 1 .44.1c.03.07.05.16.06.24.32 2.38 1.95 4.8 4.61 6.8.11.09.15.23.11.36a.32.32 0 0 1-.3.21h-.02Z" fill="#fff" id="path28"/><path d="M124.22 27.3a.3.3 0 0 1-.23-.11.3.3 0 0 1 0-.44l3.39-3.15a.3.3 0 0 1 .44 0 .3.3 0 0 1 0 .44l-3.39 3.15a.3.3 0 0 1-.21.1Z" fill="#fff" id="path29"/><path d="M124.68 28.05a.34.34 0 0 1-.23-.1.32.32 0 0 1 0-.45l3.39-3.14a.32.32 0 0 1 .44 0 .32.32 0 0 1 0 .44l-3.38 3.15a.33.33 0 0 1-.22.1Z" fill="#fff" id="path30"/><path d="M125.22 28.92a.29.29 0 0 1-.23-.1.3.3 0 0 1 0-.44l3.4-3.15a.3.3 0 0 1 .43 0 .3.3 0 0 1 0 .44l-3.39 3.15a.3.3 0 0 1-.21.1Z" fill="#fff" id="path31"/><path d="m69.14 77.47-1.58 34.89s21.58.25 34-4.93a81.33 81.33 0 0 1 3.67-9.75c1.82-3.67 9.64-9.1 7.18-23.17 0 0 18.43 11.65 23.62 6.3 5.2-5.35 7.79-30.34 7.79-30.34L133.03 47l-4.9 15.41S97.03 47.4 89.79 45.5c-2.69-.7-11.05 3.74-20.63 9.89" fill="#7C5DFA" id="path32"/><path d="M89.12 55.95s5 15.5 5.86 22.07c.86 6.57.98 17.42.98 17.42s7.91-24.2 6.93-39.14l-13.77-.35Z" fill="#231F20" id="path33"/><path fill-rule="evenodd" clip-rule="evenodd" d="M95.92 95.72h.04c.13 0 .24-.07.27-.2.08-.21 7.91-24.41 6.93-39.24a.27.27 0 0 0-.27-.26l-13.76-.35a.28.28 0 0 0-.27.37c.11.34 5 15.6 5.84 22.03.85 6.47.98 17.28.98 17.38 0 .14.1.26.24.27ZM95.26 78c-.78-5.95-4.99-19.35-5.75-21.75l13.12.34c.73 12.49-4.7 31.48-6.42 37.14-.08-3.33-.32-10.79-.95-15.73Z" fill="#231F20" id="path34"/><path d="M63.95 130.87h59.55l-21.93-23.44-34 4.92s-4.07 9.2-3.68 15.67l.06 2.85Z" fill="#231F20" id="path35"/><path fill-rule="evenodd" clip-rule="evenodd" d="M63.95 131.19h59.56a.32.32 0 0 0 .23-.53l-21.93-23.44a.33.33 0 0 0-.28-.1l-34.02 4.92a.32.32 0 0 0-.24.18c-.17.39-4.1 9.35-3.72 15.81.05.78.09 1.8.09 2.85a.3.3 0 0 0 .31.3Zm58.82-.63h-58.5c0-.87-.03-1.7-.06-2.38l-.01-.18c-.36-5.85 3.05-14.1 3.59-15.36l33.66-4.87 21.32 22.79Z" fill="#231F20" id="path36"/><path d="m101.18 47.6 1.7 8.7s.05 5.04-5.53 4.55a11.14 11.14 0 0 1-8.23-4.9l-2.26-15.18c.2-2.77-.03-5.55-.67-8.24 6.43-1.33 10.57-7.14 10.57-7.14s2.84 2.9 4 3.78a12.8 12.8 0 0 1 2.52 2.24c1.22 1.5 1.58 3.6 1.9 5.47.4 2.2.59 4.44.58 6.67-.1 4.25-4.58 4.06-4.58 4.06Z" fill="#fff" id="path37"/><path fill-rule="evenodd" clip-rule="evenodd" d="M97.32 61.17h.75a5.04 5.04 0 0 0 3.51-1.18 5.3 5.3 0 0 0 1.54-3.7l-1.65-8.35a5.3 5.3 0 0 0 3.26-1.26 4.14 4.14 0 0 0 1.26-3.1c.01-2.26-.19-4.5-.59-6.73-.3-1.82-.69-4-1.95-5.6a13.51 13.51 0 0 0-2.52-2.29 50.1 50.1 0 0 1-3.5-3.27l-.47-.46a.27.27 0 0 0-.23-.1.3.3 0 0 0-.21.13c-.04.05-4.16 5.76-10.39 7.02a.29.29 0 0 0-.18.13.26.26 0 0 0-.04.21c.59 2.44.82 4.96.67 7.47-.03.25-.03.5 0 .76 0 .07 2.26 15.18 2.26 15.18a11.34 11.34 0 0 0 8.48 5.14Zm.05-.6a10.95 10.95 0 0 1-7.97-4.72c-2.23-14.98-2.21-15.13-2.21-15.13a3.31 3.31 0 0 1 0-.63 25.5 25.5 0 0 0-.63-7.34c5.58-1.26 9.35-5.76 10.25-6.92.69.72 2.8 2.82 3.78 3.56.9.62 1.72 1.36 2.44 2.2 1.16 1.4 1.5 3.39 1.8 5.15l.03.17c.4 2.19.6 4.4.58 6.63.04 1-.34 1.97-1.05 2.68a4.92 4.92 0 0 1-3.2 1.1.27.27 0 0 0-.23.1.31.31 0 0 0-.06.25l1.7 8.63a4.8 4.8 0 0 1-1.36 3.23c-.9.83-2.2 1.18-3.87 1.04Z" fill="#231F20" id="path38"/><path d="M101.94 51.89s-3.5.82-6.22-1.1c-2.73-1.92-2.84-4.35-2.84-4.35s4.31 1.83 8.3 1.17l.76 4.28Z" fill="#231F20" id="path39"/><path fill-rule="evenodd" clip-rule="evenodd" d="M95.56 51.02a7.88 7.88 0 0 0 4.55 1.33c.64 0 1.29-.06 1.92-.19a.28.28 0 0 0 .21-.32l-.77-4.28a.28.28 0 0 0-.31-.23c-3.54.6-7.41-.87-8.05-1.12l-.1-.03a.27.27 0 0 0-.26.03.26.26 0 0 0-.12.24c0 .14.12 2.6 2.93 4.57Zm.34-.45a6.33 6.33 0 0 1-2.64-3.7c1.17.44 4.47 1.5 7.72 1.05l.66 3.75c-.83.16-3.57.43-5.74-1.1Z" fill="#231F20" id="path40"/><path d="M96.53 32.79s3.6 3.65 3.07 4.5c-.53.85-2.49.73-2.49.73" fill="#fff" id="path41"/><path d="M97.42 38.3h-.32a.28.28 0 0 1-.26-.3.28.28 0 0 1 .3-.26c.5 0 1.88 0 2.22-.6.22-.34-1.2-2.29-3.03-4.15a.28.28 0 1 1 .4-.4c1.13 1.15 3.69 3.92 3.1 4.85-.47.77-1.79.86-2.41.86Z" fill="#231F20" id="path42"/><ellipse cx="101.3" cy="33.87" rx=".5" ry=".92" transform="rotate(-13.01 101.3 33.87)" fill="#231F20" id="ellipse42"/><ellipse cx="93.27" cy="34.69" rx=".5" ry=".92" transform="rotate(-13.01 93.27 34.69)" fill="#231F20" id="ellipse43"/><path d="M88.92 35.76c-.87-1.42-2.92-1.62-4.35-1.04A2.52 2.52 0 0 0 82.9 37c-.01.61.1 1.23.33 1.8a9.5 9.5 0 0 0 1.69 2.95c.34.46.8.83 1.31 1.06.67.24 1.42.04 1.9-.49" fill="#fff" id="path43"/><path d="M86.83 43.22a1.9 1.9 0 0 1-.7-.14 3.78 3.78 0 0 1-1.43-1.14 9.88 9.88 0 0 1-1.74-3.04 5.03 5.03 0 0 1-.35-1.92 2.8 2.8 0 0 1 1.85-2.52c1.58-.63 3.78-.38 4.7 1.15a.29.29 0 0 1-.48.3c-.79-1.26-2.65-1.46-4-.92-.87.3-1.46 1.1-1.5 2.02-.01.58.1 1.16.3 1.7a9.25 9.25 0 0 0 1.64 2.86c.32.42.73.75 1.2.97.58.2 1.21.03 1.6-.42a.29.29 0 1 1 .42.4c-.4.43-.94.68-1.52.7Z" fill="#231F20" id="path44"/><path d="m100.06 39.15-4.22.4s.88 6.52 2.77 6.34c1.9-.18 1.9-4.88 1.45-6.74Z" fill="#fff" id="path45"/><path fill-rule="evenodd" clip-rule="evenodd" d="M95.56 39.6c.15 1.11.99 6.57 2.97 6.57h.11a1.6 1.6 0 0 0 1.12-.7c1.05-1.47.93-4.94.57-6.39a.28.28 0 0 0-.3-.2l-4.22.4a.25.25 0 0 0-.19.1.25.25 0 0 0-.06.22Zm2.97 6.01c-1.11 0-2.02-3.42-2.37-5.8l3.68-.33c.33 1.58.3 4.5-.53 5.66a1 1 0 0 1-.72.47h-.06Z" fill="#231F20" id="path46"/><path d="M110.6 89.62c-.1 0-.2-.06-.24-.15a.28.28 0 0 1 0-.29c.05-.08 4.68-7.86.25-24.06a.3.3 0 0 1 .2-.35.28.28 0 0 1 .36.2c4.5 16.47-.12 24.2-.32 24.55a.28.28 0 0 1-.24.1Z" fill="#231F20" id="path47"/><path d="m24.9 67.1 68.04 49.03 68.03-49.03v80.44H24.9V67.1Z" fill="#fff" id="path48"/><path fill-rule="evenodd" clip-rule="evenodd" d="M24.6 147.53c0 .18.13.32.3.32h136.07c.17 0 .3-.14.31-.31V67.1a.3.3 0 0 0-.18-.27.3.3 0 0 0-.32 0l-67.84 48.89-67.85-48.9a.3.3 0 0 0-.33 0 .3.3 0 0 0-.17.28v80.44Zm136.08-.3H25.21V67.71l67.54 48.66c.1.08.26.08.37 0l67.56-48.66v79.5Z" fill="#231F20" id="path49"/><path d="M24.9 147.85a.31.31 0 0 1-.27-.16.32.32 0 0 1 .12-.43L87 111.69a.31.31 0 0 1 .43.12.3.3 0 0 1-.11.42l-62.25 35.58a.32.32 0 0 1-.15.04Z" fill="#231F20" id="path50"/><path d="M160.97 147.85a.35.35 0 0 1-.16-.04l-62.25-35.58a.31.31 0 0 1-.12-.42c.1-.15.28-.2.43-.12l62.25 35.57c.15.08.2.28.12.43a.3.3 0 0 1-.28.16Z" fill="#231F20" id="path51"/><path d="M57.34 110.64s2.76 7.17 3.4 7.56c.65.39 8.32 3.52 7.77 4.99-.54 1.46-4-.32-4-.32s4.97 5.74 3.66 6.76c-1.3 1.01-5.72 3.07-7.49 2.23-1.77-.84-10.6-11.76-12.47-16.5" fill="#fff" id="path52"/><path d="M61.75 132.4c-.4 0-.82-.07-1.2-.24-1.89-.9-10.77-11.96-12.63-16.68a.32.32 0 1 1 .6-.22c1.88 4.84 10.77 15.6 12.3 16.36 1.53.76 5.83-1.16 7.17-2.2a.3.3 0 0 0 .1-.2c.11-1.26-2.71-4.83-3.79-6.1a.32.32 0 0 1 .39-.49c.63.33 2.43 1.11 3.24.8a.52.52 0 0 0 .32-.31c.15-.41-.85-1.44-6.46-4.04-.68-.31-1.04-.48-1.18-.58-.69-.43-2.88-6.02-3.53-7.72a.31.31 0 0 1 .18-.4.3.3 0 0 1 .4.18c1.31 3.4 2.9 7.1 3.3 7.42.1.07.56.28 1.1.53 4.52 2.1 7.23 3.63 6.78 4.83-.12.32-.37.57-.69.69-.85.17-1.73.07-2.52-.3 1.22 1.52 3.23 4.25 3.1 5.55a.9.9 0 0 1-.33.62c-1.04.8-4.4 2.5-6.65 2.5Z" fill="#231F20" id="path53"/><path d="M69.16 55.4C52.95 65.8 33.24 81.1 31.58 84.68c-2.66 5.66 17.22 34.15 17.22 34.15l10.77-6.82-9.84-21.36 19.4-13.19" fill="#7C5DFA" id="path54"/><path d="M56.71 86.24a.28.28 0 0 1-.24-.11.3.3 0 0 1 .07-.4l21.8-15.25a.28.28 0 0 1 .4.07.29.29 0 0 1-.08.4L56.88 86.2a.27.27 0 0 1-.17.05Z" fill="#231F20" id="path55"/><path d="m151.39 129.43 26.4-16.14-22.37 9.3-4.03 6.84Z" fill="#231F20" id="path56"/><path fill-rule="evenodd" clip-rule="evenodd" d="M151.17 129.65c.06.06.13.1.22.1a.37.37 0 0 0 .16-.07l26.43-16.12a.31.31 0 0 0-.28-.56l-22.4 9.3a.3.3 0 0 0-.15.14l-4.03 6.83a.31.31 0 0 0 .05.38Zm1.13-1.16 3.33-5.67 18.53-7.7-21.86 13.37Z" fill="#231F20" id="path57"/><path d="m155.42 122.6 8.63 4.4 13.75-13.71-22.38 9.3Z" fill="#fff" id="path58"/><path fill-rule="evenodd" clip-rule="evenodd" d="M163.92 127.26a.3.3 0 0 0 .13.03c.08 0 .16-.02.21-.08L178 113.49c.1-.1.12-.25.04-.36a.3.3 0 0 0-.34-.1l-22.4 9.3a.3.3 0 0 0-.17.26c0 .11.06.22.16.26l8.63 4.41Zm.08-.6-7.9-4.03 20.46-8.52L164 126.66Z" fill="#231F20" id="path59"/><path d="m177.8 113.29-28.44 6.78-6.46-3.7 34.9-3.08Z" fill="#fff" id="path60"/><path fill-rule="evenodd" clip-rule="evenodd" d="M149.2 120.32c.04.02.1.04.14.04l.07-.01 28.43-6.78a.29.29 0 0 0-.1-.57l-34.9 3.1a.29.29 0 0 0-.24.22.3.3 0 0 0 .13.3l6.47 3.7Zm.18-.56-5.57-3.18 30.1-2.64-24.53 5.82Z" fill="#231F20" id="path61"/><path d="m149.37 120.07 2.02 9.36 4.03-6.83 22.38-9.31-28.44 6.78Z" fill="#fff" id="path62"/><path fill-rule="evenodd" clip-rule="evenodd" d="M151.34 129.72h.05a.3.3 0 0 0 .27-.14l3.98-6.75 22.27-9.27a.28.28 0 0 0 .18-.36.28.28 0 0 0-.36-.18l-28.43 6.78a.28.28 0 0 0-.21.34l2.01 9.36c.03.12.13.2.24.22Zm.17-1.07-1.8-8.37 24.66-5.89-19.06 7.94a.32.32 0 0 0-.14.11l-3.66 6.2Z" fill="#231F20" id="path63"/><path d="M145.56 130.74a.31.31 0 0 1-.16-.58l1.05-.68c.14-.1.34-.05.44.1.1.14.05.33-.1.43l-1.06.68a.35.35 0 0 1-.17.05Z" fill="#D1D3D4" id="path64"/><path fill-rule="evenodd" clip-rule="evenodd" d="M18.2 111.82c.06.12.17.2.3.19a.3.3 0 0 0 .25-.12c.57-.6 1.16-1.18 1.79-1.74a.32.32 0 0 0-.22-.54.31.31 0 0 0-.23.1c-.63.56-1.24 1.14-1.82 1.77a.3.3 0 0 0-.06.34Zm-2.85 4.1a.33.33 0 0 1-.23-.09.31.31 0 0 1-.07-.44c.48-.69 1-1.37 1.52-2.03.11-.13.3-.15.44-.04.14.1.16.3.05.44-.52.63-1.02 1.31-1.5 2a.32.32 0 0 1-.23.15h.02Zm-2.75 4.32a.3.3 0 0 0 .19 0h-.02c.1 0 .2-.06.25-.14.37-.75.77-1.48 1.2-2.2a.32.32 0 0 0-.12-.43.31.31 0 0 0-.24-.03.31.31 0 0 0-.19.15c-.43.73-.84 1.47-1.21 2.22a.31.31 0 0 0 .14.43Zm-1.7 4.66h-.1a.31.31 0 0 1-.2-.4c.24-.79.53-1.6.85-2.39a.32.32 0 0 1 .58.24c-.31.78-.6 1.56-.84 2.34a.3.3 0 0 1-.3.21Zm-1.15 4.9h.05a.3.3 0 0 0 .3-.29c.11-.8.27-1.63.45-2.44a.31.31 0 0 0-.24-.38.32.32 0 0 0-.38.24c-.19.85-.33 1.69-.45 2.51-.02.18.1.34.27.36Zm131.46 3.51a.32.32 0 0 1-.16-.59l2.18-1.25a.32.32 0 0 1 .43.1c.09.15.04.34-.1.44-.63.37-1.37.8-2.2 1.25a.34.34 0 0 1-.13.05h-.02ZM9.26 134.52c.01.17.15.3.32.3h.02c.08 0 .16-.04.21-.1a.32.32 0 0 0 .08-.23c-.03-.48-.03-.97-.03-1.46v-1.02a.32.32 0 0 0-.54-.25.3.3 0 0 0-.1.22v1.05l.02.75.02.74Zm127.54 1.23a.31.31 0 0 1-.28-.17.32.32 0 0 1 .13-.43l2.02-1.09.2-.1a.32.32 0 1 1 .3.54c-.7.39-1.44.8-2.22 1.21a.29.29 0 0 1-.13.04h-.02Zm-4.76 2.14c.05.11.17.18.29.18a.3.3 0 0 0 .13-.04c.79-.39 1.54-.77 2.25-1.15a.32.32 0 1 0-.28-.56c-.72.38-1.47.76-2.25 1.15a.31.31 0 0 0-.14.42Zm-121.62 1.86a.31.31 0 0 1-.3-.23c-.23-.82-.42-1.65-.55-2.49a.32.32 0 0 1 .63-.1c.12.82.3 1.64.51 2.44a.32.32 0 0 1-.21.4l-.08-.02Zm117.11.34a.3.3 0 0 0 .28.18c.05 0 .1 0 .14-.02l2.27-1.1a.32.32 0 0 0 .15-.42.32.32 0 0 0-.43-.15l-2.26 1.1a.32.32 0 0 0-.15.41Zm-4.3 2.28a.33.33 0 0 1-.29-.18.3.3 0 0 1 .17-.41l.27-.13.23-.1 1.78-.81a.32.32 0 0 1 .27.57c-.75.35-1.51.7-2.3 1.04a.3.3 0 0 1-.13.02Zm-110.9 2.04a.3.3 0 0 1-.28-.16 21.1 21.1 0 0 1-1.1-2.3.32.32 0 0 1 .33-.43c.11.01.2.09.25.2.31.76.67 1.5 1.07 2.23.08.15.03.34-.12.43a.32.32 0 0 1-.15.03Zm101.3 1.73c.08.09.19.13.3.11a.4.4 0 0 0 .12-.01l2.35-.96a.32.32 0 0 0-.24-.59l-2.34.93a.32.32 0 0 0-.19.52ZM15 148.4c.06.07.15.1.24.1v.01c.08 0 .17-.02.23-.08a.32.32 0 0 0 0-.45 21.43 21.43 0 0 1-1.55-1.93.31.31 0 0 0-.3-.16.31.31 0 0 0-.21.52c.5.7 1.02 1.36 1.59 2Zm89.47 1.3a.32.32 0 1 1-.1-.63l2.37-.81a.3.3 0 0 1 .4.2.3.3 0 0 1-.18.39l-2.4.82-.1.03Zm-85.52 2.19a.31.31 0 0 1-.2-.06 26.08 26.08 0 0 1-1.96-1.62.31.31 0 0 1 0-.44.3.3 0 0 1 .44 0c.62.55 1.26 1.08 1.93 1.57.14.1.16.3.06.44a.33.33 0 0 1-.27.1Zm75.6.58a.3.3 0 0 0 .3.23l.1-.01 2.42-.7a.3.3 0 0 0 .21-.4.31.31 0 0 0-.39-.2l-2.41.7a.32.32 0 0 0-.22.38Zm-71.5 2.02c.05.03.1.04.15.04v.01a.32.32 0 0 0 .15-.63 32.6 32.6 0 0 1-2.17-1.2.3.3 0 0 0-.44.1.31.31 0 0 0 .1.43c.71.44 1.45.86 2.22 1.25Zm62.02.72a.32.32 0 0 1-.07-.63l2.45-.58c.17-.04.34.06.38.23a.31.31 0 0 1-.24.38h-.01c-.8.2-1.62.4-2.44.58l-.07.02Zm-57.22 1.3h-.1c-.81-.3-1.61-.6-2.37-.92a.31.31 0 0 1 .24-.58c.75.31 1.54.63 2.33.9a.32.32 0 1 1-.1.63v-.04Zm47.07.42a.3.3 0 0 0 .3.26h.06l2.48-.45a.31.31 0 0 0 .13-.57.3.3 0 0 0-.24-.04l-2.48.44a.32.32 0 0 0-.25.36Zm-42.23.98h-.07c-.84-.2-1.67-.4-2.46-.63a.32.32 0 0 1-.21-.39.31.31 0 0 1 .4-.21c.77.22 1.58.43 2.41.63a.3.3 0 0 1 .23.38.31.31 0 0 1-.31.22h.01Zm37.25-.2c.02.15.16.26.31.27l.02-.01 2.52-.37a.31.31 0 0 0 .26-.37.3.3 0 0 0-.36-.25l-2.48.37a.32.32 0 0 0-.27.35Zm-4.68.9a.32.32 0 1 1-.04-.63l2.52-.3a.32.32 0 0 1 .08.62l-2.52.3h-.04Zm-27.67.22h.03c.15 0 .28-.12.3-.28a.32.32 0 0 0-.26-.35c-.84-.12-1.67-.26-2.47-.41a.32.32 0 0 0-.37.42c.04.1.13.19.25.2.83.16 1.67.3 2.52.42Zm22.65.26a.32.32 0 1 1 0-.63c.84-.07 1.67-.14 2.52-.23.17 0 .32.12.35.29a.31.31 0 0 1-.29.34l-2.52.23h-.06Zm-20.12.06a77 77 0 0 0 2.52.22h.07a.32.32 0 1 0 0-.63 87.4 87.4 0 0 1-2.52-.22.3.3 0 0 0-.35.28c-.02.17.1.33.28.35Zm15.1.27a.3.3 0 0 1-.32-.3c0-.08.03-.17.08-.23.06-.06.14-.1.22-.1l2.52-.15a.3.3 0 0 1 .33.3.3.3 0 0 1-.29.33c-.83.06-1.67.1-2.52.15h-.03Zm-9.79.1c.73.04 1.47.07 2.22.07a.32.32 0 0 0 .33-.31.31.31 0 0 0-.3-.32c-.87-.01-1.7-.04-2.53-.07a.32.32 0 0 0-.33.3c0 .17.14.32.31.33h.3Zm4.43-.25c0 .17.14.31.31.32l1.51-.04 1.02-.03a.32.32 0 0 0 .3-.32.33.33 0 0 0-.32-.3l-1.02.03-1.5.03a.3.3 0 0 0-.3.31ZM79.84 156a.3.3 0 0 0 .3.25h.07l2.47-.52a.31.31 0 0 0 .24-.37.32.32 0 0 0-.37-.25l-2.47.52a.32.32 0 0 0-.24.37Zm9.8-2.27c.02.17.17.3.35.28h.09c.82-.2 1.63-.41 2.43-.63.12-.03.2-.12.24-.23a.33.33 0 0 0-.4-.4l-2.43.63a.32.32 0 0 0-.28.35Zm9.74-2.7a.3.3 0 0 0 .3.22l.09-.01c.81-.25 1.61-.5 2.4-.77a.31.31 0 0 0 .2-.4.3.3 0 0 0-.4-.2c-.2.08-.43.15-.65.22l-1.74.54a.32.32 0 0 0-.2.4Zm9.84-3a.33.33 0 0 1-.3-.2.31.31 0 0 1 .2-.4l1.6-.6.75-.28a.31.31 0 0 1 .23.58 161.67 161.67 0 0 1-2.48.9Zm9.1-3.86c.04.12.16.2.29.2.04 0 .08 0 .12-.03l2.32-.98a.32.32 0 1 0-.25-.58 44 44 0 0 1-1.71.74l-.6.24a.31.31 0 0 0-.17.41Z" fill="#D1D3D4" id="path65"/><path d="M22.27 108.62a.31.31 0 0 1-.25-.12.32.32 0 0 1 .06-.45l1.03-.75a.32.32 0 1 1 .36.52c-.34.24-.68.48-1 .73a.32.32 0 0 1-.2.07Z" fill="#D1D3D4" id="path66"/><path d="M163.58 71a.28.28 0 0 1-.21-.08.31.31 0 0 1 0-.44l.84-.92a.32.32 0 0 1 .56.09c.04.12 0 .24-.1.32-.53.63-.85.94-.85.94a.3.3 0 0 1-.24.1Z" fill="#D1D3D4" id="path67"/><path fill-rule="evenodd" clip-rule="evenodd" d="M164.24 13.8h.06v-.02a.3.3 0 0 0 .3-.24.32.32 0 0 0-.25-.37c-.85-.14-1.7-.24-2.56-.29a.3.3 0 0 0-.33.3.31.31 0 0 0 .3.33c.83.05 1.66.14 2.48.28Zm4.91 1.47h-.13c-.76-.34-1.54-.64-2.34-.88a.33.33 0 1 1 .18-.63c.83.25 1.64.55 2.42.9a.3.3 0 0 1-.13.6v.01Zm4.03 2.68c.06.05.14.07.21.07v-.01c.08 0 .16-.03.22-.09a.32.32 0 0 0 0-.44 17.3 17.3 0 0 0-2.07-1.57.31.31 0 1 0-.33.53c.7.45 1.35.96 1.97 1.5Zm3.45 3.96a.32.32 0 0 1-.27-.15c-.44-.7-.92-1.38-1.45-2.02a.31.31 0 0 1 .04-.44.31.31 0 0 1 .45.03c.54.66 1.04 1.35 1.5 2.08a.3.3 0 0 1-.27.48v.02Zm1.8 4.39c.05.12.17.21.3.2v-.01a.3.3 0 0 0 .1 0 .32.32 0 0 0 .2-.39c-.26-.82-.57-1.62-.93-2.4a.32.32 0 0 0-.57.27c.34.76.65 1.53.9 2.33Zm1.44 5.14a.32.32 0 0 1-.31-.27c-.12-.84-.28-1.67-.46-2.46a.32.32 0 0 1 .63-.14c.18.8.34 1.65.47 2.52.02.17-.1.32-.27.35h-.06Zm.1 4.73c0 .17.14.31.31.31h.01c.17 0 .31-.15.31-.32-.02-.87-.06-1.73-.13-2.55a.32.32 0 0 0-.34-.29.31.31 0 0 0-.29.33c.07.82.13 1.67.13 2.52Zm.17 5.38h-.03a.31.31 0 0 1-.29-.34c0-.15.02-.3.04-.45l.03-.33c0-.36.02-.71.04-1.06l.03-.67c0-.08.04-.16.1-.22a.31.31 0 0 1 .22-.09c.18.01.31.15.31.32 0 .44-.02.88-.05 1.33l-.02.42c0 .2-.02.4-.04.6l-.02.21a.32.32 0 0 1-.32.28Zm-1.15 4.96h.11c.12 0 .23-.06.29-.17.24-.88.45-1.72.63-2.52a.32.32 0 0 0-.62-.13c-.16.78-.38 1.6-.63 2.43-.05.16.04.34.2.4Zm-1.74 4.74h-.13a.31.31 0 0 1-.15-.42c.35-.79.69-1.57.98-2.32a.32.32 0 1 1 .59.23c-.3.76-.63 1.56-1 2.35a.33.33 0 0 1-.27.16h-.02Zm-2.5 4.47c.05.03.1.04.16.04h.03c.1 0 .19-.07.24-.16.44-.75.85-1.5 1.23-2.24a.32.32 0 0 0-.56-.29 44.5 44.5 0 0 1-1.21 2.22.31.31 0 0 0 .11.43Zm-2.54 4.35a.3.3 0 0 1-.25-.5c.45-.68.92-1.39 1.38-2.12a.32.32 0 0 1 .43-.1c.14.1.19.3.1.44-.44.7-.9 1.41-1.4 2.14a.32.32 0 0 1-.23.14h-.03Zm-3.15 4.07c.06.04.12.06.2.06l.02.01c.09 0 .17-.06.22-.13.5-.65 1-1.34 1.52-2.06a.32.32 0 1 0-.52-.36c-.5.7-1 1.4-1.5 2.03-.1.14-.07.34.06.45Zm-3.17 3.95c.06.05.14.08.21.08.1 0 .2-.04.27-.12.5-.58 1.04-1.24 1.62-1.97a.31.31 0 0 0 .07-.23.32.32 0 0 0-.56-.16l-.79.97-.82.99a.31.31 0 0 0 0 .44Z" fill="#D1D3D4" id="path68"/><path d="M157.95 13.61a.32.32 0 0 1-.05-.63c.42-.06.84-.1 1.26-.12a.32.32 0 1 1 .04.63c-.76.04-1.21.1-1.21.1l-.04.02Z" fill="#D1D3D4" id="path69"/><path d="M1.9 42.01c-.9-1.1-.74-2.73.37-3.63l17.48-14.27c1.1-.9 2.72-.74 3.62.36l6.74 8.23c.9 1.1.74 2.73-.37 3.63L12.26 50.6c-1.1.9-2.73.74-3.63-.36L1.9 42Z" fill="#fff" id="path70"/><path fill-rule="evenodd" clip-rule="evenodd" d="M10.3 51.9h.2c.44 0 .87-.16 1.2-.44l19-15.5a1.89 1.89 0 0 0 .28-2.7L23 23.51a1.9 1.9 0 0 0-2.7-.27L1.32 38.76a1.89 1.89 0 0 0-.27 2.69l8 9.75c.31.4.77.64 1.26.7Zm10.4-28.17a1.28 1.28 0 0 1 1.82.2l7.97 9.73a1.26 1.26 0 0 1-.18 1.8L11.32 50.98c-.26.21-.6.31-.94.28-.33-.03-.65-.2-.86-.47l-7.98-9.74c-.21-.27-.31-.6-.28-.94.03-.34.19-.65.45-.87l19-15.51Z" fill="#D1D3D4" id="path71"/><path d="M.95 40.3a.31.31 0 0 1-.32-.32.3.3 0 0 1 .28-.34l15.84-1.37 4.5-15.23a.3.3 0 0 1 .39-.21.3.3 0 0 1 .2.39L17.3 38.65a.3.3 0 0 1-.27.23L.98 40.29H.95Z" fill="#D1D3D4" id="path72"/><path d="M17.64 36.62a.31.31 0 1 1 0-.63l13.4-1.53c.17-.02.32.1.35.28a.31.31 0 0 1-.28.35L17.7 36.62h-.06Z" fill="#D1D3D4" id="path73"/><path d="M10.48 51.9h-.1a.3.3 0 0 1-.2-.4l4.17-12.81a.33.33 0 0 1 .63.2l-4.17 12.8a.32.32 0 0 1-.33.2Z" fill="#D1D3D4" id="path74"/><path d="M171.76 85.08a2.07 2.07 0 0 1 2.72-1.07l16.66 7.21a2.07 2.07 0 0 1 1.07 2.73l-3.4 7.84a2.07 2.07 0 0 1-2.72 1.08l-16.66-7.22a2.07 2.07 0 0 1-1.08-2.72l3.4-7.85Z" fill="#fff" id="path75"/><path fill-rule="evenodd" clip-rule="evenodd" d="M186.7 103.46a1.51 1.51 0 0 0 1.23 0c.39-.15.7-.46.87-.85l4.03-9.27c.16-.4.16-.83 0-1.22a1.6 1.6 0 0 0-.85-.88l-18.1-7.84a1.6 1.6 0 0 0-2.1.83l-4.03 9.29a1.62 1.62 0 0 0 .85 2.1l18.1 7.84Zm-14.3-18.98c.15-.35.5-.58.88-.58a.9.9 0 0 1 .36.08l18.1 7.84c.23.1.42.3.51.54.1.23.1.5 0 .73l-4.03 9.3a.98.98 0 0 1-1.27.52l-18.1-7.85a.96.96 0 0 1-.51-1.26l4.06-9.32Z" fill="#D1D3D4" id="path76"/><path d="M179.8 94.9a.3.3 0 0 1-.27-.15L172.6 83.8a.32.32 0 1 1 .53-.33l6.8 10.75 12.5-2.4a.3.3 0 0 1 .38.25.32.32 0 0 1-.26.37l-12.71 2.44h-.05Z" fill="#D1D3D4" id="path77"/><path d="M187.7 103.54c-.11 0-.2-.06-.27-.14l-6.04-8.97a.31.31 0 0 1 .53-.35l6.03 9c.1.14.06.34-.08.44a.33.33 0 0 1-.18.02Z" fill="#D1D3D4" id="path78"/><path d="M168.09 95.06a.31.31 0 0 1-.26-.5.31.31 0 0 1 .2-.13l10.72-1.75c.11-.01.22.03.3.12a.32.32 0 0 1-.2.51l-10.71 1.75h-.05Z" fill="#D1D3D4" id="path79"/><path d="M50.6 11.24a1.51 1.51 0 0 1 1.9-.96l12.6 4.17c.8.26 1.23 1.12.97 1.91L64.1 22.3a1.51 1.51 0 0 1-1.91.96l-12.6-4.18a1.51 1.51 0 0 1-.96-1.9l1.97-5.94Z" fill="#fff" id="path80"/><path fill-rule="evenodd" clip-rule="evenodd" d="M62.62 23.73a1.26 1.26 0 0 0 1.59-.8l2.32-7.03a1.26 1.26 0 0 0-.79-1.58l-13.7-4.54a1.26 1.26 0 0 0-1.57.8l-2.33 7.03a1.26 1.26 0 0 0 .79 1.58l13.7 4.54Zm.68-.6a.63.63 0 0 1-.48 0l-13.68-4.5a.63.63 0 0 1-.36-.31.66.66 0 0 1 0-.48l2.33-7.02a.63.63 0 0 1 .79-.4l13.69 4.53c.16.06.29.17.36.32.06.15.06.32 0 .48l-2.34 7.01a.63.63 0 0 1-.31.37Z" fill="#D1D3D4" id="path81"/><path d="M57.06 17.95a.3.3 0 0 1-.25-.13l-5.77-7.51a.31.31 0 0 1 .5-.39l5.61 7.35 8.9-2.52a.32.32 0 0 1 .39.22.31.31 0 0 1-.22.38l-9.1 2.61-.06-.01Z" fill="#D1D3D4" id="path82"/><path d="M63.37 23.73a.3.3 0 0 1-.24-.12l-4.98-6.16a.32.32 0 1 1 .49-.4l4.98 6.17a.31.31 0 0 1-.25.5Z" fill="#D1D3D4" id="path83"/><path d="M48.52 18.82a.32.32 0 1 1-.08-.63l7.68-1.97a.31.31 0 0 1 .35.47.3.3 0 0 1-.2.14L48.6 18.8l-.08.02Z" fill="#D1D3D4" id="path84"/></svg>
